# xmcd
#
# Track frame offsets:
#	150
#	16515
#	32153
#	46372
#	61632
#	78751
#	93300
#	106507
#	119580
#	136270
#	157801
#	173904
#	185152
#	199495
#	213518
#	226866
#	240872
#	251843
#	267927
#	284479
#
# Disc length: 3976 seconds
#
# Revision: 0
# Processed by: cddbd v1.5.2PL0 Copyright (c) Steve Scherf et al.
# Submitted via: EasyCDDAExtractor 16.0.8.2
#
DISCID=060f8614
DTITLE=Συλλογικός δίσκος - Όλα τα ρεμπέτικα 21
DYEAR=2008
DGENRE=Ρεμπέτικη
TTITLE0=Καζαντζίδης Στέλιος - Της γερακίνας γιός [Β. Τσιτσάνης-Κ. Βίρβος]
TTITLE1=Γλυκερία - Η Έλλη [παραδ., διασκ. Στέλ. Φωτιάδης]
TTITLE2=Ξηντάρης Γιώργος - Αγγελοκαμωμένη [Μ. Βαμβακάρης]
TTITLE3=Μπέλλου Σωτηρία - Σ' ένα βράχο φαγωμένο [Απ. Καλδάρας]
TTITLE4=Ιακωβίδης Αγάθωνας - Κάφ' τονε, Σταύρο, κάφ' τονε [Μ. Βαμβακάρης]
TTITLE5=Πάνου Πόλυ - Το παιδί της ξενητειάς [Γ. Μητσάκης]
TTITLE6=Ευσταθίου Δημήτρης - Μού τα φάγανε τα ζάρια [Δ. Ευσταθίου]
TTITLE7=Μπαρμπεράκης Μανώλης - Για σένα, μαυρομάτα μου [Μ. Βαμβακάρης]
TTITLE8=Γκολές Μπάμπης - Αλανιάρα Μαρίκα [Β. Παπάζογλου]
TTITLE9=Μαριώ-Κιουπρούλης Στέφανος ή Χοντρονάκος - Κάτι θα ήπιε ο Θεός [Σ. Κιο
TTITLE9=υπρούλης]
TTITLE10=Τσαουσάκης Πρόδρομος - Ανάθεμα τα αδέλφια σου [Πρ. Τσαουσάκης]
TTITLE11=Μητσάκης Γιώργος - Υπόφερα εγώ για σένα τόσο [Γ. Μητσάκης]
TTITLE12=Κοντογιάννης Δημήτρης - Κι εσύ δεν έχεις μπέσα [Γ. Μητσάκης]
TTITLE13=Γενίτσαρης Μιχάλης - Θύμα σου μ' έχεις κάνει [Μ. Γενίτσαρης]
TTITLE14=Καραμάνης Γιάννης-Οι Δήθεν - Πάψε να με τυραννάς [Μ. Βαμβακάρης]
TTITLE15=Περγιάλης Νίκος - Στον καφενέ τού Μανωλά [Ν. Περγιάλης]
TTITLE16=Μουφλουζέλης Γιώργος - Κοέλα μου χαδιάρα [Γ. Μουφλουζέλης]
TTITLE17=Νικολαΐδης Απόστολος - Ήρθαν τα μαντάτα σου (Οι παπατζ.)[Τ. Χάρμας]
TTITLE18=Αμπατζή Ρίτα - Το παιχνίδι του Αμερικάνου [Κ. Σκαρβέλης]
TTITLE19=Περπινιάδης Στελλάκης - Η φωνή του αργιλέ [Β. Παπάζογλου]
EXTD=
EXTT0=
EXTT1=
EXTT2=
EXTT3=
EXTT4=
EXTT5=
EXTT6=
EXTT7=
EXTT8=
EXTT9=
EXTT10=
EXTT11=
EXTT12=
EXTT13=
EXTT14=
EXTT15=
EXTT16=
EXTT17=
EXTT18=
EXTT19=
PLAYORDER=
